Coordinates
version=1
nRows=21
nColumns=22
inDegrees=yes

Units are S.I. units (second, meters, Newtons, ...)
If the header above contains a line with 'inDegrees', this indicates whether rotational values are in degrees (yes) or radians (no).

endheader
time	pelvis_tilt	pelvis_list	pelvis_rotation	pelvis_tx	pelvis_ty	pelvis_tz	hip_flexion_r	hip_adduction_r	hip_rotation_r	knee_angle_r	ankle_angle_r	subtalar_angle_r	hip_flexion_l	hip_adduction_l	hip_rotation_l	knee_angle_l	ankle_angle_l	subtalar_angle_l	lumbar_extension	lumbar_bending	lumbar_rotation
      0.01000000	     -7.54287311	     -2.89320699	      2.93930020	     -1.10056181	      0.88710413	     -0.51875543	      9.66045307	      0.26541039	      5.56672931	     -9.97294647	     12.39661572	     -1.23956553	      6.12657862	     -3.99156123	    -14.38720170	    -10.25776453	     14.40927105	      5.17499420	      4.96911563	      1.68284130	      9.44343582
      0.02000000	     -7.53811536	     -2.89060148	      2.93085675	     -1.10060311	      0.88710493	     -0.51871655	      9.66970860	      0.26673828	      5.55092287	     -9.99184340	     12.40764406	     -1.24423602	      6.11998196	     -3.99113248	    -14.38223179	    -10.25058893	     14.40246367	      5.17997597	      4.97058588	      1.69062175	      9.48146013
      0.03000000	     -7.53202786	     -2.89030393	      2.92367287	     -1.10065269	      0.88710584	     -0.51867049	      9.68350492	      0.27174251	      5.53439538	    -10.02114506	     12.41512280	     -1.24888273	      6.11514135	     -3.99461816	    -14.38581618	    -10.24772153	     14.39963787	      5.18559748	      4.97090673	      1.70296631	      9.51660653
      0.04000000	     -7.52620846	     -2.89168195	      2.91670612	     -1.10070505	      0.88710712	     -0.51861798	      9.69883611	      0.27884919	      5.51420846	    -10.05256101	     12.42268411	     -1.25308033	      6.11398541	     -4.00150590	    -14.39086238	    -10.25134342	     14.39936789	      5.19170856	      4.97190681	      1.71728713	      9.54866813
      0.05000000	     -7.52025554	     -2.89401175	      2.91380425	     -1.10076213	      0.88710792	     -0.51857113	      9.71632584	      0.28664726	      5.49177439	    -10.08807737	     12.43005950	     -1.25682540	      6.11581682	     -4.00961860	    -14.39436775	    -10.25978933	     14.40093394	      5.19805063	      4.97124709	      1.73343916	      9.57381962
      0.06000000	     -7.51364851	     -2.89753763	      2.91579138	     -1.10083037	      0.88710766	     -0.51852974	      9.73813824	      0.29518654	      5.46530615	    -10.13207030	     12.44099116	     -1.26081845	      6.12160812	     -4.01961870	    -14.39373388	    -10.27430593	     14.40491724	      5.20557639	      4.96779501	      1.74910330	      9.59088057
      0.07000000	     -7.50925282	     -2.89388371	      2.92203786	     -1.10086215	      0.88710933	     -0.51851984	      9.73918504	      0.29226811	      5.46487032	    -10.13808579	     12.44190928	     -1.26123761	      6.12134755	     -4.01748873	    -14.39348431	    -10.27726956	     14.40528194	      5.20629523	      4.97218287	      1.75963475	      9.59293729
      0.08000000	     -7.50264894	     -2.89781589	      2.94490445	     -1.10095409	      0.88709614	     -0.51854050	      9.77801649	      0.29665565	      5.40751071	    -10.21921379	     12.48290371	     -1.26880042	      6.14064557	     -4.02435117	    -14.37198138	    -10.30896227	     14.42293324	      5.22048570	      4.96381505	      1.77741880	      9.57995449
      0.09000000	     -7.49803508	     -2.89462036	      2.96112013	     -1.10099755	      0.88709626	     -0.51858089	      9.77858203	      0.29034364	      5.41226020	    -10.22571062	     12.48289578	     -1.26912320	      6.14310476	     -4.01888110	    -14.37069372	    -10.31110662	     14.42281159	      5.22116427	      4.96435990	      1.79042714	      9.58314914
      0.10000000	     -7.48164929	     -2.88462781	      2.99361064	     -1.10111527	      0.88710703	     -0.51863873	      9.78666832	      0.27709071	      5.42352746	    -10.26850466	     12.49330586	     -1.27137173	      6.15410937	     -4.00760109	    -14.33125144	    -10.34144843	     14.42465155	      5.22653841	      4.93732279	      1.79144794	      9.56670431
      0.11000000	     -7.46911049	     -2.86788670	      3.03673503	     -1.10118521	      0.88710452	     -0.51876200	      9.79067045	      0.24883391	      5.40121344	    -10.30650352	     12.53120399	     -1.27654247	      6.16255620	     -3.98223157	    -14.28398427	    -10.36324453	     14.43560832	      5.23482029	      4.92512617	      1.79026195	      9.53532005
      0.12000000	     -7.46544794	     -2.86608868	      3.06038516	     -1.10124134	      0.88709933	     -0.51885211	      9.79010548	      0.23912755	      5.40503622	    -10.31168871	     12.53270101	     -1.27697843	      6.16748278	     -3.97421685	    -14.28459693	    -10.36086758	     14.43610150	      5.23538427	      4.92369367	      1.80568139	      9.54045352
      0.13000000	     -7.45449475	     -2.84155740	      3.12573805	     -1.10135186	      0.88709261	     -0.51899926	      9.79292815	      0.19736244	      5.34891853	    -10.34483202	     12.58474157	     -1.28293739	      6.18747405	     -3.93828477	    -14.20435775	    -10.38784933	     14.44780054	      5.24792238	      4.90476510	      1.78663177	      9.49866492
      0.14000000	     -7.44896221	     -2.83947409	      3.15293862	     -1.10144973	      0.88708929	     -0.51905523	      9.79333743	      0.18771445	      5.33081487	    -10.35172707	     12.59011237	     -1.28301455	      6.20553337	     -3.93493026	    -14.17662769	    -10.40963057	     14.44622044	      5.25090649	      4.89422060	      1.79057536	      9.52416531
      0.15000000	     -7.45847622	     -2.84499977	      3.20354310	     -1.10158546	      0.88705148	     -0.51912711	      9.82134409	      0.17993652	      5.22696955	    -10.37839671	     12.61255832	     -1.27897836	      6.26143722	     -3.94093122	    -14.12325967	    -10.46079764	     14.47465711	      5.26238565	      4.89568237	      1.79857277	      9.50299829
      0.16000000	     -7.48433647	     -2.87113170	      3.23562320	     -1.10174668	      0.88699403	     -0.51910580	      9.87061486	      0.20068526	      5.11201410	    -10.39923654	     12.61421664	     -1.26716085	      6.34328759	     -3.97773042	    -14.08763648	    -10.52816385	     14.49998062	      5.27471719	      4.91356126	      1.81932386	      9.52793210
      0.17000000	     -7.52190691	     -2.90922449	      3.25410876	     -1.10193871	      0.88691746	     -0.51899533	      9.94155706	      0.23855440	      4.95598986	    -10.42577986	     12.61239216	     -1.25052142	      6.44975185	     -4.03756281	    -14.06338555	    -10.61874595	     14.53716352	      5.29081047	      4.93871747	      1.84377759	      9.56893002
      0.18000000	     -7.61164833	     -2.97239058	      3.27375158	     -1.10221821	      0.88675827	     -0.51881282	     10.08050498	      0.30325895	      4.76932775	    -10.45882305	     12.61738637	     -1.21316185	      6.64690717	     -4.13277575	    -14.01673899	    -10.76300465	     14.60171649	      5.32953221	      5.01527555	      1.88323679	      9.61278264
      0.19000000	     -7.68780729	     -3.04400719	      3.27576376	     -1.10250628	      0.88662183	     -0.51854777	     10.22313051	      0.38408289	      4.53327460	    -10.51756353	     12.61280613	     -1.17799987	      6.83086870	     -4.24654207	    -14.00220795	    -10.91305098	     14.66218003	      5.36357445	      5.07104325	      1.92584352	      9.68246348
      0.20000000	     -7.78612015	     -3.11943363	      3.27389127	     -1.10281484	      0.88645237	     -0.51827273	     10.39729647	      0.46770459	      4.28644474	    -10.58611067	     12.60617038	     -1.13658490	      7.04646849	     -4.36516476	    -13.98725151	    -11.07626545	     14.72640924	      5.40358499	      5.14838701	      1.97043879	      9.75698480
      0.21000000	     -7.87427167	     -3.18174609	      3.27566430	     -1.10308857	      0.88629742	     -0.51804217	     10.56176389	      0.53622933	      4.06963106	    -10.66723528	     12.61276033	     -1.09962145	      7.24260741	     -4.46561590	    -13.97059134	    -11.22846556	     14.78247000	      5.43578772	      5.21513253	      2.00062274	      9.83293637
